<svg xmlns="http://www.w3.org/2000/svg" width="1600" height="1000" viewBox="0 0 1600 1000" role="img" aria-label="Heart disease modeling dashboard preview">
<defs><linearGradient id="glow" x1="0" y1="0" x2="0" y2="1"><stop stop-color="#ff8f9d" stop-opacity=".32"/><stop offset="1" stop-color="#ff8f9d" stop-opacity="0"/></linearGradient><filter id="blur"><feGaussianBlur stdDeviation="50"/></filter></defs>
<rect width="1600" height="1000" rx="40" fill="#071019"/><circle cx="1450" cy="-30" r="330" fill="#ff8f9d" opacity=".12" filter="url(#blur)"/>
<g opacity=".22" stroke="#263847"><path d="M0 0V1000"/><path d="M80 0V1000"/><path d="M160 0V1000"/><path d="M240 0V1000"/><path d="M320 0V1000"/><path d="M400 0V1000"/><path d="M480 0V1000"/><path d="M560 0V1000"/><path d="M640 0V1000"/><path d="M720 0V1000"/><path d="M800 0V1000"/><path d="M880 0V1000"/><path d="M960 0V1000"/><path d="M1040 0V1000"/><path d="M1120 0V1000"/><path d="M1200 0V1000"/><path d="M1280 0V1000"/><path d="M1360 0V1000"/><path d="M1440 0V1000"/><path d="M1520 0V1000"/><path d="M1600 0V1000"/><path d="M0 0H1600"/><path d="M0 80H1600"/><path d="M0 160H1600"/><path d="M0 240H1600"/><path d="M0 320H1600"/><path d="M0 400H1600"/><path d="M0 480H1600"/><path d="M0 560H1600"/><path d="M0 640H1600"/><path d="M0 720H1600"/><path d="M0 800H1600"/><path d="M0 880H1600"/><path d="M0 960H1600"/></g>
<g transform="translate(70 66)"><rect width="44" height="44" rx="13" fill="#ff8f9d"/><text x="22" y="29" text-anchor="middle" fill="#061118" font-size="18" font-weight="800" font-family="Arial">SE</text><text x="66" y="18" fill="#f4f7fa" font-size="18" font-weight="700" font-family="Arial">CLASSIFICATION</text><text x="66" y="42" fill="#8fa3b4" font-size="13" font-family="Arial">Decision system / portfolio preview</text></g>
<text x="70" y="170" fill="#f4f7fa" font-size="50" font-weight="700" font-family="Arial" letter-spacing="-2">Heart disease modeling</text><g transform="translate(70 210)"><rect width="270" height="138" rx="22" fill="#0d1a26" stroke="#263847"/><text x="24" y="36" fill="#8fa3b4" font-size="15" font-family="Arial" letter-spacing="1">LOGISTIC AUC</text><text x="24" y="88" fill="#f4f7fa" font-size="38" font-family="Arial" font-weight="700">0.935</text><circle cx="236" cy="31" r="7" fill="#ff8f9d"/></g><g transform="translate(370 210)"><rect width="270" height="138" rx="22" fill="#0d1a26" stroke="#263847"/><text x="24" y="36" fill="#8fa3b4" font-size="15" font-family="Arial" letter-spacing="1">TREE ACCURACY</text><text x="24" y="88" fill="#f4f7fa" font-size="38" font-family="Arial" font-weight="700">81.95%</text><circle cx="236" cy="31" r="7" fill="#ff8f9d"/></g><g transform="translate(670 210)"><rect width="270" height="138" rx="22" fill="#0d1a26" stroke="#263847"/><text x="24" y="36" fill="#8fa3b4" font-size="15" font-family="Arial" letter-spacing="1">KNN</text><text x="24" y="88" fill="#f4f7fa" font-size="38" font-family="Arial" font-weight="700">70.68%</text><circle cx="236" cy="31" r="7" fill="#ff8f9d"/></g>
<rect x="70" y="390" width="650" height="530" rx="26" fill="#0d1a26" stroke="#263847"/><text x="100" y="438" fill="#f4f7fa" font-size="20" font-weight="700" font-family="Arial">Operational breakdown</text><text x="100" y="466" fill="#8fa3b4" font-size="13" font-family="Arial">Ranked signal by contribution</text><text x="105" y="543" fill="#8fa3b4" font-size="14" font-family="Arial">01</text><rect x="155" y="525" width="430" height="25" rx="12.5" fill="#142532"/><rect x="155" y="525" width="399.9" height="25" rx="12.5" fill="#ff8f9d" opacity="0.98"/><text x="610" y="543" fill="#f4f7fa" font-size="14" font-family="Arial" font-weight="700">93%</text><text x="105" y="609" fill="#8fa3b4" font-size="14" font-family="Arial">02</text><rect x="155" y="591" width="430" height="25" rx="12.5" fill="#142532"/><rect x="155" y="591" width="352.6" height="25" rx="12.5" fill="#ff8f9d" opacity="0.89"/><text x="610" y="609" fill="#f4f7fa" font-size="14" font-family="Arial" font-weight="700">82%</text><text x="105" y="675" fill="#8fa3b4" font-size="14" font-family="Arial">03</text><rect x="155" y="657" width="430" height="25" rx="12.5" fill="#142532"/><rect x="155" y="657" width="305.3" height="25" rx="12.5" fill="#ff8f9d" opacity="0.80"/><text x="610" y="675" fill="#f4f7fa" font-size="14" font-family="Arial" font-weight="700">71%</text><text x="105" y="741" fill="#8fa3b4" font-size="14" font-family="Arial">04</text><rect x="155" y="723" width="430" height="25" rx="12.5" fill="#142532"/><rect x="155" y="723" width="283.8" height="25" rx="12.5" fill="#ff8f9d" opacity="0.71"/><text x="610" y="741" fill="#f4f7fa" font-size="14" font-family="Arial" font-weight="700">66%</text><text x="105" y="807" fill="#8fa3b4" font-size="14" font-family="Arial">05</text><rect x="155" y="789" width="430" height="25" rx="12.5" fill="#142532"/><rect x="155" y="789" width="318.2" height="25" rx="12.5" fill="#ff8f9d" opacity="0.62"/><text x="610" y="807" fill="#f4f7fa" font-size="14" font-family="Arial" font-weight="700">74%</text>
<rect x="750" y="390" width="780" height="530" rx="26" fill="#0d1a26" stroke="#263847"/><text x="782" y="438" fill="#f4f7fa" font-size="20" font-weight="700" font-family="Arial">Trend &amp; decision signal</text><text x="782" y="466" fill="#8fa3b4" font-size="13" font-family="Arial">Validated records · synthetic preview</text>
<path d="M790 570H1490M790 650H1490M790 730H1490" stroke="#263847"/><polygon points="790.0,775.0 867.8,744.4 945.6,754.6 1023.3,683.1 1101.1,667.8 1178.9,637.2 1256.7,611.7 1334.4,591.2 1412.2,560.6 1490.0,530.0 1490,800 790,800" fill="url(#glow)"/><polyline points="790.0,775.0 867.8,744.4 945.6,754.6 1023.3,683.1 1101.1,667.8 1178.9,637.2 1256.7,611.7 1334.4,591.2 1412.2,560.6 1490.0,530.0" fill="none" stroke="#ff8f9d" stroke-width="7" stroke-linecap="round" stroke-linejoin="round"/><circle cx="1490.0" cy="530.0" r="11" fill="#071019" stroke="#ff8f9d" stroke-width="6"/>
<rect x="782" y="842" width="716" height="45" rx="13" fill="#132632"/><circle cx="808" cy="864" r="6" fill="#ff8f9d"/><text x="832" y="870" fill="#f4f7fa" font-size="14" font-family="Arial">Signal translated into a clear next action</text><text x="1460" y="870" text-anchor="end" fill="#ff8f9d" font-size="13" font-weight="700" font-family="Arial">READY</text>
</svg>