<svg xmlns="http://www.w3.org/2000/svg" width="1200" height="630" viewBox="0 0 1200 630"><defs><linearGradient id="g" x1="0" x2="1"><stop stop-color="#071019"/><stop offset="1" stop-color="#102331"/></linearGradient></defs><rect width="1200" height="630" fill="url(#g)"/><g opacity=".18" stroke="#57d7e8"><path d="M0 0V630"/><path d="M60 0V630"/><path d="M120 0V630"/><path d="M180 0V630"/><path d="M240 0V630"/><path d="M300 0V630"/><path d="M360 0V630"/><path d="M420 0V630"/><path d="M480 0V630"/><path d="M540 0V630"/><path d="M600 0V630"/><path d="M660 0V630"/><path d="M720 0V630"/><path d="M780 0V630"/><path d="M840 0V630"/><path d="M900 0V630"/><path d="M960 0V630"/><path d="M1020 0V630"/><path d="M1080 0V630"/><path d="M1140 0V630"/><path d="M1200 0V630"/><path d="M0 0H1200"/><path d="M0 60H1200"/><path d="M0 120H1200"/><path d="M0 180H1200"/><path d="M0 240H1200"/><path d="M0 300H1200"/><path d="M0 360H1200"/><path d="M0 420H1200"/><path d="M0 480H1200"/><path d="M0 540H1200"/><path d="M0 600H1200"/></g><circle cx="1040" cy="40" r="300" fill="#57d7e8" opacity=".08"/><rect x="70" y="72" width="55" height="55" rx="16" fill="#57d7e8"/><text x="97.5" y="107" text-anchor="middle" font-family="Arial" font-size="22" font-weight="800" fill="#071019">SE</text><text x="70" y="215" fill="#f4f7fa" font-family="Arial" font-size="68" font-weight="700" letter-spacing="-3">Saif Essam</text><text x="70" y="282" fill="#57d7e8" font-family="Arial" font-size="28" font-weight="700">Analytics Specialist &amp; Data Analyst</text><text x="70" y="375" fill="#9fb0bf" font-family="Arial" font-size="33">I turn messy CRM, sales and insurance data</text><text x="70" y="421" fill="#f4f7fa" font-family="Arial" font-size="33" font-weight="700">into reliable decisions.</text><g transform="translate(70 505)"><rect width="300" height="62" rx="18" fill="#102533" stroke="#2c4557"/><circle cx="32" cy="31" r="8" fill="#67e6b0"/><text x="55" y="38" fill="#f4f7fa" font-family="Arial" font-size="17">Cairo · Open to global roles</text></g></svg>